<svg width="168" height="95" viewBox="0 0 168 95" fill="none" xmlns="http://www.w3.org/2000/svg">
<path d="M48 36C48 35.4477 48.4477 35 49 35H52C52.5523 35 53 35.4477 53 36V66H48V36Z" fill="url(#paint0_linear_3_1298)"/>
<path d="M40 47C40 46.4477 40.4477 46 41 46H44C44.5523 46 45 46.4477 45 47V66H40V47Z" fill="url(#paint1_linear_3_1298)"/>
<path d="M32 54C32 53.4477 32.4477 53 33 53H36C36.5523 53 37 53.4477 37 54V66H32V54Z" fill="url(#paint2_linear_3_1298)"/>
<path d="M24 47C24 46.4477 24.4477 46 25 46H28C28.5523 46 29 46.4477 29 47V66H24V47Z" fill="url(#paint3_linear_3_1298)"/>
<line x1="24.2999" y1="37.4429" x2="32.4429" y2="40.7001" stroke="url(#paint4_linear_3_1298)" stroke-width="2" stroke-linecap="round"/>
<path d="M32.2917 40.3559C31.9019 40.7471 31.9029 41.3802 32.294 41.7701C32.6852 42.16 33.3184 42.159 33.7083 41.7678L33 41.0619L32.2917 40.3559ZM53 21.9984C52.9991 21.4461 52.5507 20.9991 51.9984 21L42.9984 21.0146C42.4461 21.0155 41.9991 21.464 42 22.0163C42.0009 22.5685 42.4494 23.0155 43.0016 23.0146L51.0016 23.0016L51.0146 31.0016C51.0155 31.5539 51.464 32.0009 52.0163 32C52.5685 31.9991 53.0155 31.5506 53.0146 30.9984L53 21.9984ZM33 41.0619L33.7083 41.7678L52.7083 22.706L52 22L51.2917 21.294L32.2917 40.3559L33 41.0619Z" fill="url(#paint5_linear_3_1298)"/>
<path d="M72.2031 44.3594H74.6562V51.9062C74.6562 52.7552 74.4557 53.5 74.0547 54.1406C73.6536 54.776 73.0911 55.2708 72.3672 55.625C71.6432 55.9792 70.7995 56.1562 69.8359 56.1562C68.8672 56.1562 68.0208 55.9792 67.2969 55.625C66.5781 55.2708 66.0182 54.776 65.6172 54.1406C65.2161 53.5 65.0156 52.7552 65.0156 51.9062V44.3594H67.4688V51.7031C67.4688 52.3698 67.6849 52.9193 68.1172 53.3516C68.5495 53.7786 69.1224 53.9922 69.8359 53.9922C70.5495 53.9922 71.1224 53.7786 71.5547 53.3516C71.987 52.9193 72.2031 52.3698 72.2031 51.7031V44.3594ZM80.5781 56.1719C79.6823 56.1719 78.9141 55.9818 78.2734 55.6016C77.6328 55.2214 77.1406 54.6927 76.7969 54.0156C76.4583 53.3385 76.2891 52.5573 76.2891 51.6719C76.2891 50.776 76.4609 49.9896 76.8047 49.3125C77.1536 48.6354 77.6484 48.1068 78.2891 47.7266C78.9297 47.3464 79.6901 47.1562 80.5703 47.1562C81.3307 47.1562 81.9974 47.2943 82.5703 47.5703C83.1432 47.8464 83.5964 48.2344 83.9297 48.7344C84.263 49.2344 84.4453 49.8229 84.4766 50.5H82.1953C82.1276 50.0677 81.9583 49.7188 81.6875 49.4531C81.4167 49.1823 81.0573 49.0469 80.6094 49.0469C80.0469 49.0469 79.5964 49.2734 79.2578 49.7266C78.9193 50.1745 78.75 50.8125 78.75 51.6406C78.75 52.474 78.9167 53.1224 79.25 53.5859C79.5885 54.0495 80.0417 54.2812 80.6094 54.2812C81.026 54.2812 81.3776 54.151 81.6641 53.8906C81.9505 53.6302 82.1276 53.2656 82.1953 52.7969H84.4766C84.4401 53.4635 84.2604 54.0521 83.9375 54.5625C83.6146 55.0677 83.1667 55.4635 82.5938 55.75C82.026 56.0312 81.3542 56.1719 80.5781 56.1719ZM88.4688 50.9531V56H86.0469V44.3594H88.3906V48.8203H88.5C88.6979 48.3047 89.0156 47.8984 89.4531 47.6016C89.8958 47.3047 90.4479 47.1562 91.1094 47.1562C92.0156 47.1562 92.7448 47.4479 93.2969 48.0312C93.849 48.6146 94.125 49.4193 94.125 50.4453V56H91.7109V50.875C91.7109 50.3333 91.5755 49.9141 91.3047 49.6172C91.0339 49.3151 90.6458 49.1641 90.1406 49.1641C89.651 49.1641 89.25 49.3229 88.9375 49.6406C88.625 49.9531 88.4688 50.3906 88.4688 50.9531ZM100.039 56.1719C99.1432 56.1719 98.3724 55.9896 97.7266 55.625C97.0807 55.2604 96.5833 54.7422 96.2344 54.0703C95.8854 53.3932 95.7109 52.5938 95.7109 51.6719C95.7109 50.776 95.8828 49.9896 96.2266 49.3125C96.5755 48.6354 97.0651 48.1068 97.6953 47.7266C98.3255 47.3464 99.0677 47.1562 99.9219 47.1562C100.693 47.1562 101.388 47.3203 102.008 47.6484C102.633 47.9766 103.128 48.4688 103.492 49.125C103.862 49.7812 104.047 50.6042 104.047 51.5938V52.25H98.0938C98.1198 52.9115 98.3125 53.4297 98.6719 53.8047C99.0312 54.1797 99.5 54.3672 100.078 54.3672C100.479 54.3672 100.823 54.2812 101.109 54.1094C101.401 53.9375 101.609 53.6875 101.734 53.3594L103.969 53.5078C103.797 54.3099 103.367 54.9557 102.68 55.4453C101.997 55.9297 101.117 56.1719 100.039 56.1719ZM98.1094 50.7578H101.727C101.669 50.2057 101.492 49.7682 101.195 49.4453C100.898 49.1224 100.482 48.9609 99.9453 48.9609C99.4036 48.9609 98.974 49.1302 98.6562 49.4688C98.3438 49.8021 98.1615 50.2318 98.1094 50.7578ZM110.281 47.2656V49.0938H108.625V53.3125C108.625 53.8802 108.901 54.1641 109.453 54.1641C109.547 54.1641 109.648 54.1562 109.758 54.1406C109.872 54.125 109.971 54.1068 110.055 54.0859L110.438 55.8984C109.922 56.0495 109.422 56.125 108.938 56.125C108.073 56.125 107.401 55.9062 106.922 55.4688C106.448 55.0312 106.211 54.4193 106.211 53.6328V49.0938H105.023V47.2656H106.211V45.1875H108.625V47.2656H110.281ZM111.906 56V44.3594H116.484C117.37 44.3594 118.122 44.5286 118.742 44.8672C119.367 45.2057 119.844 45.6719 120.172 46.2656C120.5 46.8594 120.664 47.5417 120.664 48.3125C120.664 49.0833 120.497 49.763 120.164 50.3516C119.831 50.9401 119.349 51.401 118.719 51.7344C118.089 52.0625 117.326 52.2266 116.43 52.2266H114.359V56H111.906ZM114.359 50.2578H116.023C116.737 50.2578 117.266 50.0781 117.609 49.7188C117.958 49.3542 118.133 48.8854 118.133 48.3125C118.133 47.7292 117.958 47.2604 117.609 46.9062C117.26 46.5521 116.729 46.375 116.016 46.375H114.359V50.2578ZM122.219 56V47.2656H124.562V48.7969H124.656C124.812 48.2552 125.078 47.8464 125.453 47.5703C125.828 47.2891 126.26 47.1484 126.75 47.1484C126.87 47.1484 127 47.1562 127.141 47.1719C127.281 47.1875 127.404 47.2083 127.508 47.2344V49.375C127.393 49.3385 127.234 49.3099 127.031 49.2891C126.833 49.263 126.651 49.25 126.484 49.25C125.953 49.25 125.513 49.4193 125.164 49.7578C124.815 50.0911 124.641 50.526 124.641 51.0625V56H122.219ZM132.703 56.1719C131.823 56.1719 131.06 55.9844 130.414 55.6094C129.773 55.2292 129.279 54.7031 128.93 54.0312C128.586 53.3542 128.414 52.5677 128.414 51.6719C128.414 50.7708 128.586 49.9818 128.93 49.3047C129.279 48.6276 129.773 48.1016 130.414 47.7266C131.06 47.3464 131.823 47.1562 132.703 47.1562C133.589 47.1562 134.352 47.3464 134.992 47.7266C135.638 48.1016 136.133 48.6276 136.477 49.3047C136.826 49.9818 137 50.7708 137 51.6719C137 52.5677 136.826 53.3542 136.477 54.0312C136.133 54.7031 135.638 55.2292 134.992 55.6094C134.352 55.9844 133.589 56.1719 132.703 56.1719ZM130.875 51.6562C130.875 52.4167 131.029 53.0443 131.336 53.5391C131.643 54.0339 132.102 54.2812 132.711 54.2812C133.315 54.2812 133.771 54.0339 134.078 53.5391C134.385 53.0443 134.539 52.4167 134.539 51.6562C134.539 50.8958 134.385 50.2708 134.078 49.7812C133.771 49.2917 133.315 49.0469 132.711 49.0469C132.102 49.0469 131.643 49.2917 131.336 49.7812C131.029 50.2708 130.875 50.8958 130.875 51.6562Z" fill="url(#paint6_linear_3_1298)"/>
<defs>
<linearGradient id="paint0_linear_3_1298" x1="50.5" y1="35" x2="50.5" y2="66" gradientUnits="userSpaceOnUse">
<stop stop-color="#1E3A8A"/>
<stop offset="1" stop-color="#080F24"/>
</linearGradient>
<linearGradient id="paint1_linear_3_1298" x1="42.5" y1="46" x2="42.5" y2="66" gradientUnits="userSpaceOnUse">
<stop stop-color="#1E3A8A"/>
<stop offset="1" stop-color="#080F24"/>
</linearGradient>
<linearGradient id="paint2_linear_3_1298" x1="34.5" y1="53" x2="34.5" y2="66" gradientUnits="userSpaceOnUse">
<stop stop-color="#1E3A8A"/>
<stop offset="1" stop-color="#080F24"/>
</linearGradient>
<linearGradient id="paint3_linear_3_1298" x1="26.5" y1="46" x2="26.5" y2="66" gradientUnits="userSpaceOnUse">
<stop stop-color="#1E3A8A"/>
<stop offset="1" stop-color="#080F24"/>
</linearGradient>
<linearGradient id="paint4_linear_3_1298" x1="22.8143" y1="38.4642" x2="32.8143" y2="42.4642" gradientUnits="userSpaceOnUse">
<stop offset="1" stop-color="#080F24"/>
</linearGradient>
<linearGradient id="paint5_linear_3_1298" x1="33.3541" y1="41.4148" x2="52.3541" y2="22.353" gradientUnits="userSpaceOnUse">
<stop stop-color="#080F24"/>
<stop offset="1" stop-color="#1E3A8A"/>
</linearGradient>
<linearGradient id="paint6_linear_3_1298" x1="109.67" y1="12.7429" x2="109.67" y2="122.686" gradientUnits="userSpaceOnUse">
<stop stop-color="#1E3A8A"/>
<stop offset="1" stop-color="#080F24"/>
</linearGradient>
</defs>
</svg>
